:SAMPLES-PER-SECOND 30
:FULLY-SPECIFIED
:DEGREES
193
root  55.3231 37.4092 18.6022 -154.014 13.4708 179.104
RightUpLeg  -59.8459 -25.1181 13.9478
RightLeg  28.7321 -0.926497 -0.785399
RightFoot  3.13768 0.496408 -3.73675
RightToes  0.00048216 0.542163 -0.142577
Spine  61.3147 -6.3301 8.41093
Spine1  6.79243 -0.45955 -2.79636
HEad  -37.3615 -3.02083 -4.79928
LeftShoulder1  8.96965 -25.7035 -24.3052
LeftArm  -28.3657 -57.0657 -40.6094
LeftForeArm  5.63557 -20.3149 -3.93838
LeftHand  -0.25398 0.0180481 5.50724
RightShoulder  3.70531 12.2078 16.9461
RightArm  -45.9971 63.9584 -4.22781
RightForeArm  -5.3161 13.9523 6.33745
RightHand  0.191888 9.19269 1.01872
LeftUpLeg  -59.1654 23.59 -25.8739
LeftLeg  28.7453 4.46513 2.98456
LeftFoot  -5.35675 -0.566684 11.4106
LeftToes  1.06246e-005 4.65856e-005 -8.18501e-006
194
root  55.9569 37.2157 18.6126 -151.872 12.6811 179.424
RightUpLeg  -62.6057 -24.1047 15.9795
RightLeg  30.4659 -1.70013 -1.32155
RightFoot  1.54341 0.527778 -4.57428
RightToes  0.00048216 0.542163 -0.142577
Spine  62.3648 -6.30839 8.47721
Spine1  6.77339 -0.165739 -3.74723
HEad  -39.4969 -2.84335 -4.34526
LeftShoulder1  9.1163 -26.3506 -24.1048
LeftArm  -31.3577 -60.5965 -36.7226
LeftForeArm  5.09318 -19.2051 -3.6082
LeftHand  -0.25398 0.0180481 5.50724
RightShoulder  3.59529 12.266 16.0906
RightArm  -51.7457 64.2292 -8.0389
RightForeArm  -6.41067 12.5873 6.14865
RightHand  0.0427469 9.68841 -0.188167
LeftUpLeg  -63.1215 24.3996 -26.7675
LeftLeg  30.8132 2.48818 1.95255
LeftFoot  -5.34253 -0.488661 9.91476
LeftToes  1.06246e-005 4.65856e-005 -8.18501e-006
195
root  56.4984 37.0185 18.5929 -149.787 12.1247 179.727
RightUpLeg  -65.3402 -23.1087 17.8611
RightLeg  32.1352 -2.15746 -1.70844
RightFoot  0.24235 0.557309 -5.4686
RightToes  0.00048216 0.542163 -0.142577
Spine  63.4807 -6.33074 8.52972
Spine1  6.63787 0.400158 -5.02935
HEad  -40.9819 -2.94782 -4.43042
LeftShoulder1  9.30893 -26.9592 -24.1133
LeftArm  -33.8766 -63.8118 -32.8423
LeftForeArm  4.51166 -17.9606 -3.24597
LeftHand  -0.25398 0.0180481 5.50724
RightShoulder  3.49698 12.2583 15.4214
RightArm  -56.6514 64.3055 -11.4288
RightForeArm  -7.74829 11.1156 5.83745
RightHand  -0.0551542 10.1152 -0.938489
LeftUpLeg  -67.0185 25.6926 -29.018
LeftLeg  32.0821 0.184514 0.486124
LeftFoot  -5.29099 -0.538912 10.7653
LeftToes  1.06246e-005 4.65856e-005 -8.18501e-006
196
root  56.9788 36.8169 18.5638 -147.873 11.2828 179.92
RightUpLeg  -68.0049 -22.4582 19.7077
RightLeg  33.7982 -2.53578 -2.0809
RightFoot  -0.908736 0.582987 -6.44232
RightToes  0.00048216 0.542163 -0.142577
Spine  64.5022 -6.36582 8.6797
Spine1  6.21113 0.813361 -5.69911
HEad  -41.8574 -3.14565 -4.94794
LeftShoulder1  9.2978 -27.8712 -23.1251
LeftArm  -37.6059 -66.0102 -28.6164
LeftForeArm  3.83067 -16.7992 -2.77153
LeftHand  -0.25398 0.0180481 5.50724
RightShoulder  3.35403 12.1729 14.5554
RightArm  -60.8457 64.2347 -14.7342
RightForeArm  -8.69785 9.61107 5.39141
RightHand  -0.0279729 10.4283 -0.734642
LeftUpLeg  -70.1002 25.6103 -30.0003
LeftLeg  33.2743 -0.801418 -0.20032
LeftFoot  -5.16866 -0.590636 11.4943
LeftToes  1.06246e-005 4.65856e-005 -8.18501e-006
197
root  57.4323 36.616 18.5249 -146.259 10.2101 179.993
RightUpLeg  -70.3924 -22.0817 21.4412
RightLeg  35.4507 -2.93516 -2.5066
RightFoot  -2.11752 0.585903 -7.42447
RightToes  0.00048216 0.542163 -0.142577
Spine  65.4795 -6.47348 8.88202
Spine1  5.60225 0.892946 -6.05151
HEad  -42.6073 -3.15979 -5.18873
LeftShoulder1  8.98264 -29.018 -20.9664
LeftArm  -42.4089 -67.1787 -23.4055
LeftForeArm  2.467 -15.8429 -2.25921
LeftHand  -0.25398 0.0180481 5.50724
RightShoulder  3.20143 12.1189 13.5647
RightArm  -64.4984 63.981 -17.7036
RightForeArm  -9.32408 8.33538 4.7904
RightHand  0.0459856 10.5685 -0.199528
LeftUpLeg  -72.4408 24.7476 -29.7078
LeftLeg  34.6464 -0.997277 -0.375042
LeftFoot  -5.03038 -0.571804 10.8884
LeftToes  1.06246e-005 4.65856e-005 -8.18501e-006
198
root  57.8431 36.4398 18.4646 -144.995 9.3732 179.912
RightUpLeg  -72.3351 -21.7648 22.74
RightLeg  36.9776 -3.25764 -2.90021
RightFoot  -3.35346 0.55141 -8.19762
RightToes  0.00048216 0.542163 -0.142577
Spine  66.5252 -6.62255 8.89965
Spine1  5.0771 0.847094 -6.71153
HEad  -43.4275 -2.95008 -5.04266
LeftShoulder1  8.64155 -29.7413 -19.2085
LeftArm  -46.2342 -68.3289 -18.1141
LeftForeArm  1.04138 -14.9766 -1.98843
LeftHand  -0.25398 0.0180481 5.50724
RightShoulder  3.12548 12.1934 12.9235
RightArm  -67.5518 63.4997 -20.0881
RightForeArm  -10.1653 7.43195 4.1763
RightHand  0.0569114 10.6897 -0.125125
LeftUpLeg  -74.3041 24.1768 -29.6912
LeftLeg  35.7592 -1.36237 -0.685451
LeftFoot  -4.94539 -0.553083 10.4018
LeftToes  1.06246e-005 4.65856e-005 -8.18501e-006
199
root  58.1977 36.308 18.3917 -144.014 8.81934 179.622
RightUpLeg  -73.8795 -21.5253 23.5411
RightLeg  38.2287 -3.47934 -3.21338
RightFoot  -4.42952 0.49534 -8.67016
RightToes  0.00048216 0.542163 -0.142577
Spine  67.5772 -6.69436 8.63071
Spine1  4.81159 0.787542 -7.35271
HEad  -44.1103 -2.56061 -5.08437
LeftShoulder1  8.55842 -29.2354 -19.3906
LeftArm  -48.4724 -70.8901 -13.6764
LeftForeArm  0.899373 -13.8728 -2.04062
LeftHand  -0.25398 0.0180481 5.50724
RightShoulder  3.06434 12.2562 12.4069
RightArm  -69.936 62.9833 -21.7518
RightForeArm  -11.4157 6.86402 3.67111
RightHand  0.0137722 10.9487 -0.44156
LeftUpLeg  -75.5658 23.7238 -29.9948
LeftLeg  36.316 -1.67428 -0.950665
LeftFoot  -4.88948 -0.573749 10.6702
LeftToes  1.06246e-005 4.65856e-005 -8.18501e-006
200
root  58.5235 36.2016 18.3223 -143.154 8.28386 179.357
RightUpLeg  -75.1091 -21.2547 24.1722
RightLeg  39.1998 -3.74937 -3.55661
RightFoot  -5.29594 0.435525 -8.89615
RightToes  0.00048216 0.542163 -0.142577
Spine  68.5266 -6.54273 8.34801
Spine1  4.44872 0.817399 -7.52972
HEad  -44.3022 -2.18937 -5.52176
LeftShoulder1  8.59077 -28.3324 -20.3042
LeftArm  -50.7769 -73.8162 -9.91458
LeftForeArm  1.99526 -12.7314 -2.13628
LeftHand  -0.25398 0.0180481 5.50724
RightShoulder  2.99328 12.1465 12.0556
RightArm  -71.3918 62.4808 -22.9277
RightForeArm  -12.6428 6.61868 3.39951
RightHand  -0.00451886 11.2379 -0.575895
LeftUpLeg  -76.4994 23.1088 -29.8223
LeftLeg  36.7457 -1.62572 -0.930794
LeftFoot  -4.82384 -0.580029 10.6663
LeftToes  1.06246e-005 4.65856e-005 -8.18501e-006
201
root  58.8442 36.0907 18.2553 -142.317 7.7711 179.451
RightUpLeg  -75.9909 -20.6779 24.8678
RightLeg  39.998 -4.13695 -4.00069
RightFoot  -6.07102 0.368258 -8.86136
RightToes  0.00048216 0.542163 -0.142577
Spine  69.108 -6.12568 8.12107
Spine1  4.32166 1.0005 -7.42487
HEad  -44.4663 -1.88261 -6.08686
LeftShoulder1  8.28857 -28.2923 -19.3372
LeftArm  -55.6656 -74.9657 -4.72276
LeftForeArm  2.39631 -12.2316 -1.90189
LeftHand  -0.25398 0.0180481 5.50724
RightShoulder  2.86171 11.8475 11.5199
RightArm  -72.657 62.0926 -23.7332
RightForeArm  -13.3273 6.66615 3.15932
RightHand  0.0305472 11.3125 -0.333282
LeftUpLeg  -77.6881 22.7764 -29.3311
LeftLeg  37.5271 -1.60886 -0.952501
LeftFoot  -4.8193 -0.54715 10.085
LeftToes  1.06246e-005 4.65856e-005 -8.18501e-006
202
root  59.1388 35.9825 18.1852 -141.593 7.39864 179.753
RightUpLeg  -76.5847 -19.9607 25.5316
RightLeg  40.6958 -4.51412 -4.44094
RightFoot  -6.83017 0.297164 -8.68979
RightToes  0.00048216 0.542163 -0.142577
Spine  69.4772 -5.60738 7.757
Spine1  4.46704 1.26503 -7.42138
HEad  -44.7728 -1.72227 -6.54902
LeftShoulder1  7.79126 -28.944 -17.1118
LeftArm  -61.1068 -74.3755 0.61285
LeftForeArm  1.88783 -12.5269 -1.51826
LeftHand  -0.25398 0.0180481 5.50724
RightShoulder  2.7292 11.5075 11.0122
RightArm  -73.9167 61.9004 -24.0858
RightForeArm  -13.6655 7.02807 2.91265
RightHand  0.0676779 11.1311 -0.0690521
LeftUpLeg  -79.0042 22.8955 -29.1232
LeftLeg  38.4088 -1.86805 -1.21087
LeftFoot  -4.91198 -0.516171 9.69499
LeftToes  1.06246e-005 4.65856e-005 -8.18501e-006
